<svg xmlns="http://www.w3.org/2000/svg" viewBox="0 0 420 160" role="img" aria-label="Astrident Clínica Dental"><rect width="420" height="160" rx="24" fill="transparent"/><text x="18" y="70" font-family="Arial, Helvetica, sans-serif" font-size="44" font-style="italic" fill="#0d2b45">Astrident</text><path d="M270 28c-20 0-30 14-40 14s-20-14-40-14c-29 0-45 32-38 69 5 28 16 46 28 46 14 0 15-30 50-30s36 30 50 30c12 0 23-18 28-46 7-37-9-69-38-69z" fill="none" stroke="#6a6f73" stroke-width="8" stroke-linecap="round"/><path d="M205 86c28 22 64 13 84-17" fill="none" stroke="#4ec8f1" stroke-width="8" stroke-linecap="round"/><path d="M287 68l3-25 20 14" fill="none" stroke="#4ec8f1" stroke-width="8" stroke-linecap="round" stroke-linejoin="round"/><text x="141" y="108" font-family="Arial, Helvetica, sans-serif" font-size="17" letter-spacing="5" font-weight="700" fill="#4ec8f1">CLÍNICA DENTAL</text><text x="120" y="138" font-family="Arial, Helvetica, sans-serif" font-size="13" letter-spacing="3" font-weight="700" fill="#6a6f73">NOS APASIONA VERTE SONREÍR</text></svg>